<svg height="300px" width="300px"  fill="#000000" xmlns="http://www.w3.org/2000/svg" xmlns:xlink="http://www.w3.org/1999/xlink" version="1.1" x="0px" y="0px" viewBox="0 0 100 100" style="enable-background:new 0 0 100 100;" xml:space="preserve"><g><path d="M49.97101,100C22.41743,100,0,77.55701,0,49.97101C0,22.41743,22.41743,0,49.97101,0C77.55701,0,100,22.41743,100,49.97101   C100,77.55701,77.55701,100,49.97101,100z M49.97101,3.42344c-25.66695,0-46.54757,20.88062-46.54757,46.54757   c0,25.69938,20.88062,46.60555,46.54757,46.60555c25.69938,0,46.60555-20.90617,46.60555-46.60555   C96.57656,24.30406,75.67039,3.42344,49.97101,3.42344z"></path><path d="M60.46733,98.8582c-0.47559,0-0.94725-0.19653-1.28527-0.58368l-9.05285-10.31355l-17.31863-4.10538l-7.99654,7.83932   c-0.67408,0.66228-1.7579,0.65246-2.42019-0.02358c-0.6613-0.67604-0.65049-1.75889,0.02457-2.42117l8.67062-8.49964   c0.41859-0.41074,1.02192-0.58171,1.59282-0.44218l18.76799,4.4493c0.3449,0.08057,0.65737,0.26924,0.89124,0.53651   l9.41151,10.72429c0.62494,0.70945,0.5542,1.79033-0.15722,2.41331C61.27111,98.71867,60.86824,98.8582,60.46733,98.8582z"></path><path d="M51.05386,88.13391c-0.37634,0-0.75563-0.12381-1.07105-0.37733c-0.73696-0.5935-0.85389-1.67045-0.26138-2.40741   l11.23721-13.97478c0.25548-0.31641,0.61316-0.53062,1.0121-0.60726l17.5692-3.36645   c0.70355-0.13757,1.39728,0.1749,1.77068,0.76841l7.35784,11.69315c0.5031,0.79985,0.26334,1.85715-0.53651,2.36024   c-0.80181,0.50703-1.85911,0.26138-2.36024-0.53651l-6.73486-10.70464l-15.80442,3.02843L52.38825,87.49521   C52.05023,87.91577,51.55401,88.13391,51.05386,88.13391z"></path><path d="M79.8642,70.79268c-0.08057,0-0.16115-0.0059-0.24369-0.01768c-0.93546-0.13364-1.58595-1.00031-1.45231-1.93576   l2.73757-19.22393c0.05896-0.42154,0.27513-0.80575,0.60332-1.07695l14.20472-11.75112   c0.72517-0.60038,1.80605-0.50212,2.40938,0.22797c0.60332,0.72812,0.50114,1.80703-0.22797,2.40938L84.20148,50.75416   l-2.64521,18.56853C81.43443,70.17559,80.70335,70.79268,79.8642,70.79268z"></path><path d="M82.59785,51.56875c-0.24369,0-0.49131-0.05208-0.72517-0.16311l-15.05959-7.07386   c-0.4579-0.21519-0.79789-0.622-0.9276-1.11134l-5.0762-19.22393c-0.17491-0.66621,0.06485-1.37272,0.61119-1.79328   l8.44265-6.50296c0.452-0.34883,1.0455-0.45004,1.58987-0.26531l19.62287,6.61695c0.89615,0.30166,1.37763,1.27249,1.07498,2.16765   c-0.30067,0.89516-1.27151,1.38254-2.16765,1.07498L71.227,18.97041l-6.81741,5.25111l4.58096,17.35204l14.3364,6.73486   c0.85684,0.40189,1.22433,1.42087,0.82146,2.27575C83.85756,51.20518,83.24048,51.56875,82.59785,51.56875z"></path><path d="M62.29304,74.15913c-0.68587,0-1.33243-0.41467-1.59577-1.09267l-6.44597-16.60034   c-0.2319-0.5994-0.10809-1.28133,0.32034-1.76085l11.69315-13.0639c0.6328-0.70356,1.71368-0.76251,2.41724-0.13364   c0.70355,0.63084,0.76448,1.7127,0.13364,2.41724L57.82213,56.2067l6.06668,15.62165   c0.34195,0.88042-0.09433,1.87287-0.97672,2.21482C62.70967,74.12179,62.49939,74.15913,62.29304,74.15913z"></path><path d="M32.28783,83.68462c-0.65933,0-1.28723-0.38322-1.56826-1.02585L22.90481,64.8046   c-0.27513-0.62691-0.14936-1.35798,0.31935-1.85714l11.2382-11.98007c0.39796-0.42351,0.98557-0.61807,1.55745-0.51194   l20.13776,3.70938c0.92955,0.17097,1.54467,1.06319,1.37173,1.99275c-0.17098,0.92562-1.0514,1.5486-1.99275,1.37173   l-19.21705-3.53743l-9.82716,10.4747l7.36177,16.82045c0.37929,0.8647-0.01572,1.87483-0.88141,2.25413   C32.74966,83.63745,32.51678,83.68462,32.28783,83.68462z"></path><path d="M70.90862,18.76799c-0.5935,0-1.16931-0.30756-1.48572-0.85782L61.60717,4.33334   c-0.47166-0.8195-0.18866-1.86501,0.63084-2.33666c0.81557-0.47657,1.86697-0.18965,2.33667,0.62888l7.81573,13.57683   c0.47166,0.8195,0.18867,1.86501-0.63084,2.33666C71.4923,18.6943,71.19752,18.76799,70.90862,18.76799z"></path><path d="M62.46598,25.27096c-0.10023,0-0.20242-0.00884-0.30461-0.02751L43.0524,21.82099   c-0.51194-0.09138-0.95412-0.41073-1.20272-0.86765l-4.73523-8.72761c-0.44218-0.81656-0.15427-1.83553,0.64951-2.29932   l16.42838-9.46949c0.82147-0.47264,1.86501-0.19063,2.33667,0.62789c0.47362,0.8195,0.19259,1.86599-0.62691,2.33765   l-14.98393,8.63622l3.54725,6.53834l18.30125,3.27801c0.92955,0.16606,1.5486,1.05533,1.38156,1.98587   C64.00082,24.68925,63.27958,25.27096,62.46598,25.27096z"></path><path d="M20.1358,13.7478c-0.91875,0-1.67831-0.7291-1.70975-1.65375c-0.03144-0.94429,0.70847-1.73629,1.65276-1.76871   l18.48205-0.62691c0.92759-0.00491,1.73628,0.70847,1.76871,1.65276c0.03144,0.9443-0.70847,1.73629-1.65276,1.76871   l-18.48205,0.62691C20.1751,13.74682,20.15545,13.7478,20.1358,13.7478z"></path><path d="M15.05861,38.79079c-0.72222,0-1.37959-0.4579-1.61837-1.15949L8.53502,23.25561   c-0.30559-0.89418,0.17196-1.86697,1.06712-2.17158c0.89615-0.30658,1.86697,0.17392,2.17158,1.06712l4.4434,13.02165   l13.37342-2.03107l12.48022-14.1379c0.62495-0.70847,1.70484-0.77529,2.41626-0.15034   c0.70847,0.62593,0.77528,1.70779,0.15034,2.41626L31.74542,35.8734c-0.26629,0.30068-0.62888,0.49917-1.02684,0.55911   l-15.40253,2.33863C15.22959,38.78391,15.1441,38.79079,15.05861,38.79079z"></path><path d="M35.7093,53.85039c-0.735,0-1.41399-0.47755-1.63704-1.21844L28.8241,35.2347   c-0.27317-0.90499,0.23878-1.8601,1.14377-2.13228c0.90597-0.27415,1.85911,0.23878,2.13228,1.14377l5.24816,17.39822   c0.27317,0.90499-0.23878,1.8601-1.14377,2.13326C36.03946,53.82681,35.8734,53.85039,35.7093,53.85039z"></path><path d="M24.47111,65.83046c-0.34588,0-0.69373-0.10416-0.99539-0.32034L10.4128,56.15364   c-0.55027-0.39305-0.81656-1.07498-0.67997-1.73727l3.65042-17.68319c0.19063-0.92562,1.09758-1.51913,2.02223-1.33046   c0.92562,0.19161,1.52109,1.0966,1.33046,2.02223l-3.4254,16.59444l12.15793,8.70795   c0.76841,0.55027,0.94528,1.61936,0.39501,2.38776C25.52938,65.58087,25.00368,65.83046,24.47111,65.83046z"></path><path d="M2.68353,61.55214c-0.58957,0-1.16342-0.30461-1.4808-0.85095c-0.47559-0.81754-0.19849-1.86501,0.61807-2.3406   l8.72761-5.07817c0.8195-0.47362,1.86599-0.19652,2.33961,0.61905c0.47559,0.81754,0.19849,1.86501-0.61807,2.3406   l-8.72761,5.07817C3.27113,61.47746,2.97537,61.55214,2.68353,61.55214z"></path></g></svg>